<svg xmlns="http://www.w3.org/2000/svg" xmlns:xlink="http://www.w3.org/1999/xlink" aria-hidden="true" role="img" class="iconify iconify--logos" width="35.93" height="32" preserveAspectRatio="xMidYMid meet" viewBox="0 0 256 228"><path fill="#00D8FF" d="M210.483 73.824a171.49 171.49 0 0 0-8.24-2.597c.465-1.9.893-3.777 1.273-5.621c6.238-30.281 2.16-54.676-11.769-67.708c-13.355-12.6-35.196-15.153-60.124-7.2a170.974 170.974 0 0 0-6.022 1.697a155.866 155.866 0 0 0-4.24-6.902C97.642-4.006 87.135-2.468 78.683 3.767c-9.76 7.212-16.106 19.08-18.05 34.21a171.23 171.23 0 0 0-3.623 5.697a145.422 145.422 0 0 0-9.946-2.15c-30.526-4.278-56.645 2.566-67.166 16.414C-9.976 76.99-6.5 97.777 11.052 119.77a171.257 171.257 0 0 0-2.18 6.928a145.376 145.376 0 0 0-4.41 15.697c-9.34 31.466-3.022 56.996 10.08 70.006c12.6 12.6 33.663 15.037 58.133 7.483a145.76 145.76 0 0 0 3.84 6.476c12.585 20.03 30.747 28.93 45.893 25.785c16.414-3.456 29.442-16.53 37.224-36.402a171.386 171.386 0 0 0 5.665 2.078c27.477 9.01 50.8 9.864 64.926 2.18c15.153-8.24 22.847-25.3 20.903-48.02a171.25 171.25 0 0 0-1.273-5.665c5.665 1.534 11.192 2.926 16.53 4.118c30.526 6.993 55.22 5.433 68.575-3.456c14.563-9.628 19.08-28.155 12.553-54.676a171.49 171.49 0 0 0-8.24-2.598ZM28.718 75.648c-5.196-18.05-5.196-35.157 0-49.128c5.196-13.74 14.328-22.847 24.922-23.5c11.54-.652 23.269 6.476 32.401 19.69a156.264 156.264 0 0 1 5.665 9.01l-6.476 1.856a171.256 171.256 0 0 0-4.118 8.24l-8.24 2.597c-3.5 1.08-7.035 2.225-10.57 3.41l-11.769 3.84a145.422 145.422 0 0 0-9.946 3.623c-2.924 1.162-5.848 2.36-8.736 3.556c-5.665 2.324-11.192 4.735-16.53 7.2Zm-11.307 57.58c-4.618-13.5-4.618-26.52 0-38.527c4.618-12.007 12.36-20.03 21.422-20.547c9.628-.652 20.03 5.196 27.763 15.79a156.264 156.264 0 0 1 3.5 5.848l-12.007 3.5a171.256 171.256 0 0 0-3.623 7.483l-6.476 2.18c-2.924.993-5.848 2.011-8.772 3.063l-9.946 3.41c-3.5 1.22-6.962 2.475-10.424 3.767c-5.665 2.08-11.157 4.24-16.53 6.476c-4.117 1.762-8.218 3.557-12.32 5.389Zm171.595 108.5c-4.278 13.5-11.54 23.5-20.03 29.442c-9.01 6.238-19.69 7.483-31.5 3.5c-12.36-4.278-25.53-14.328-38.527-29.442a156.264 156.264 0 0 1-3.5-5.848l12.007-3.5c1.9-.465 3.84-.93 5.78-1.43a171.256 171.256 0 0 0 6.476-1.9l6.476-2.18c2.924-.993 5.848-2.011 8.772-3.063l9.946-3.41c3.5-1.22 6.962-2.475 10.424-3.767c5.665-2.08 11.157-4.24 16.53-6.476c4.117-1.762 8.218-3.557 12.32-5.389c6.238-2.597 12.52-5.108 18.804-7.483c4.618-1.856 9.236-3.623 13.74-5.389c12.36-4.618 24.5-8.24 35.79-10.424c11.54-2.225 22.03-2.925 30.526-1.85c9.01 1.162 16.53 4.97 21.422 10.547c5.196 5.848 7.483 13.5 6.476 22.03c-1.006 8.736-5.196 18.05-12.36 27.283c-7.483 9.628-17.887 18.804-30.526 27.283c-12.36 8.24-26.52 15.79-41.853 22.42c-15.79 6.862-32.835 12.707-50.543 17.323Zm-30.526-41.853c-4.618 13.5-11.54 23.5-20.03 29.442c-9.01 6.238-19.69 7.483-31.5 3.5c-12.36-4.278-25.53-14.328-38.527-29.442a156.264 156.264 0 0 1-3.5-5.848l12.007-3.5c1.9-.465 3.84-.93 5.78-1.43a171.256 171.256 0 0 0 6.476-1.9l6.476-2.18c2.924-.993 5.848-2.011 8.772-3.063l9.946-3.41c3.5-1.22 6.962-2.475 10.424-3.767c5.665-2.08 11.157-4.24 16.53-6.476c4.117-1.762 8.218-3.557 12.32-5.389c6.238-2.597 12.52-5.108 18.804-7.483c4.618-1.856 9.236-3.623 13.74-5.389c12.36-4.618 24.5-8.24 35.79-10.424c11.54-2.225 22.03-2.925 30.526-1.85c9.01 1.162 16.53 4.97 21.422 10.547c5.196 5.848 7.483 13.5 6.476 22.03c-1.006 8.736-5.196 18.05-12.36 27.283c-7.483 9.628-17.887 18.804-30.526 27.283c-12.36 8.24-26.52 15.79-41.853 22.42c-15.79 6.862-32.835 12.707-50.543 17.323Z"></path></svg>

